# xmcd
#
# Track frame offsets: 
#        183
#        16278
#        28778
#        41658
#        48973
#        62940
#        74965
#        91163
#        104533
#        119168
#        183280
#        193738
#        214788
#
# Disc length: 3096 seconds
#
# Revision: 0
# Processed by: cddbd v1.5.2PL0 Copyright (c) Steve Scherf et al.
# Submitted via: ExactAudioCopyFreeDBPlugin 1.0
#
DISCID=c60c160d
DTITLE=Glen Campbell - Rhinestone Cowboy Greatest Hits Live
DYEAR=1994
DGENRE=Country
TTITLE0=Gentle On My Mind
TTITLE1=By The Time I Get To Phoenix
TTITLE2=Galveston
TTITLE3=Kentucky Means Paradise
TTITLE4=Wichita Lineman
TTITLE5=Mansion In Branson
TTITLE6=Here In The Real World
TTITLE7=Classical Gas
TTITLE8=Rhineston Cowboy
TTITLE9=Hit Medley
TTITLE10=Let It Be
TTITLE11=No More Nights
TTITLE12=Southern Nights
EXTD=
EXTT0=
EXTT1=
EXTT2=
EXTT3=
EXTT4=
EXTT5=
EXTT6=
EXTT7=
EXTT8=
EXTT9=
EXTT10=
EXTT11=
EXTT12=
PLAYORDER=
